# Blender v2.80 (sub 39) OBJ File: 'Text.blend'
# www.blender.org
mtllib GreenSign.mtl
o GreenSign_Plane.001
v -1.000000 -1.074972 0.000000
v 1.000000 -1.074972 0.000000
v 0.721679 -0.889425 0.000000
v -0.721679 -0.889425 0.000000
v 0.000000 0.925028 0.000000
v 0.000000 0.553934 0.000000
v -0.590105 -0.801708 0.000000
v 0.590105 -0.801708 0.000000
v 0.425866 -0.692216 0.000000
v -0.425866 -0.692216 0.000000
v 0.000000 0.378501 0.000000
v 0.000000 0.159516 0.000000
v -0.250000 -0.574972 0.000000
v 0.250000 -0.574972 0.000000
v 0.000000 -0.074972 0.000000
v -1.000000 -1.074972 0.148179
v 1.000000 -1.074972 0.148179
v 0.721679 -0.889425 0.148179
v -0.721679 -0.889425 0.148179
v 0.000000 0.925028 0.148179
v 0.000000 0.553934 0.148179
v -0.590105 -0.801708 0.148179
v 0.590105 -0.801708 0.148179
v 0.425866 -0.692216 0.148179
v -0.425866 -0.692216 0.148179
v 0.000000 0.378501 0.148179
v 0.000000 0.159516 0.148179
v -0.250000 -0.574972 0.148179
v 0.250000 -0.574972 0.148179
v 0.000000 -0.074972 0.148179
vt 1.000000 0.000000
vt 1.000000 0.000000
vt 0.500000 1.000000
vt 0.500000 1.000000
vt 1.000000 0.000000
vt 1.000000 0.000000
vt 0.500000 1.000000
vt 0.500000 1.000000
vt 0.000000 0.000000
vt 0.000000 0.000000
vt 0.000000 0.000000
vt 0.000000 0.000000
vt 0.000000 0.000000
vt 0.000000 0.000000
vt 0.000000 0.000000
vt 1.000000 0.000000
vt 0.500000 1.000000
vt 0.500000 1.000000
vt 1.000000 0.000000
vt 1.000000 0.000000
vt 0.500000 1.000000
vt 0.500000 1.000000
vt 1.000000 0.000000
vt 0.000000 0.000000
vt 0.000000 0.000000
vt 0.000000 0.000000
vt 0.000000 0.000000
vt 0.000000 0.000000
vt 0.000000 0.000000
vt 0.000000 0.000000
vn 0.0000 0.0000 -1.0000
vn 0.0000 0.0000 1.0000
vn 0.0000 -1.0000 0.0000
vn 0.8944 -0.4472 0.0000
vn 0.0000 1.0000 0.0000
vn -0.8944 -0.4472 0.0000
vn 0.8944 0.4472 0.0000
vn -0.8944 0.4472 0.0000
usemtl GreenSign
s off
f 8/1/1 9/2/1 12/3/1 11/4/1
f 2/5/1 3/6/1 6/7/1 5/8/1
f 11/4/1 12/3/1 10/9/1 7/10/1
f 5/8/1 6/7/1 4/11/1 1/12/1
f 1/12/1 4/11/1 3/6/1 2/5/1
f 7/10/1 10/9/1 9/2/1 8/1/1
f 13/13/2 14/14/2 15/15/2
f 23/16/2 26/17/2 27/18/2 24/19/2
f 17/20/2 20/21/2 21/22/2 18/23/2
f 26/17/2 22/24/2 25/25/2 27/18/2
f 20/21/2 16/26/2 19/27/2 21/22/2
f 16/26/2 17/20/2 18/23/2 19/27/2
f 22/24/2 23/16/2 24/19/2 25/25/2
f 28/28/1 30/29/1 29/30/1
f 7/10/3 8/1/3 23/16/3 22/24/3
f 4/11/4 6/7/4 21/22/4 19/27/4
f 14/14/5 13/13/5 28/28/5 29/30/5
f 9/2/5 10/9/5 25/25/5 24/19/5
f 6/7/6 3/6/6 18/23/6 21/22/6
f 15/15/6 14/14/6 29/30/6 30/29/6
f 10/9/4 12/3/4 27/18/4 25/25/4
f 2/5/7 5/8/7 20/21/7 17/20/7
f 13/13/4 15/15/4 30/29/4 28/28/4
f 12/3/6 9/2/6 24/19/6 27/18/6
f 5/8/8 1/12/8 16/26/8 20/21/8
f 8/1/7 11/4/7 26/17/7 23/16/7
f 11/4/8 7/10/8 22/24/8 26/17/8
f 1/12/3 2/5/3 17/20/3 16/26/3
f 3/6/5 4/11/5 19/27/5 18/23/5
