# Blender v2.80 (sub 39) OBJ File: 'Rock-0.blend'
# www.blender.org
mtllib Rock-0.mtl
o Cube
v -1.313733 1.557043 1.354885
v 1.313733 0.000000 -1.354885
v 1.313733 4.861213 -0.386317
v 1.313733 0.000000 1.354885
v 1.313733 2.615329 1.548805
v -0.549724 1.494551 -1.354885
v -0.167761 4.861213 -1.354885
v -1.313733 0.000000 1.354885
v 1.313733 3.416625 1.354885
v 1.313733 4.861213 -0.251876
v -0.883487 4.568386 1.201969
v 0.469014 4.861213 1.354885
v -0.064265 4.364806 1.668584
v -1.313733 2.056162 1.354885
v -1.313733 4.861213 -0.139313
v -0.118400 5.234842 1.189352
v 1.313733 2.842507 -1.354885
v -1.009732 4.861213 -1.354885
v -1.313733 0.000000 -0.511853
v -1.313733 4.861213 -1.090190
v -0.345515 0.000000 -1.354885
v 1.313733 2.192644 -1.354885
v -1.313733 1.208337 -0.655608
v 1.313733 2.192643 2.348954
v 1.313733 0.000000 2.939509
v -1.313733 0.000000 3.041955
v -1.313733 1.208336 2.348954
v 2.145035 2.192644 -1.354885
v 2.846669 0.000000 -0.847631
v 2.145035 2.192643 1.354885
v 2.885167 0.000000 1.354885
v 2.145035 2.192643 2.348954
v 2.145035 0.000000 2.348954
v 1.126101 2.167006 -2.144141
v 1.126101 0.000000 -2.797863
v -1.501364 0.000000 -1.301109
v -1.501364 1.182700 -1.444864
v -0.737356 1.468914 -2.144141
v -0.533146 0.000000 -2.144141
v 1.957403 1.686933 -2.144141
v 2.200406 0.000000 -2.402499
v -1.646284 0.000000 -0.511853
v -2.120660 0.000000 1.354885
v -1.646284 0.578903 -0.655608
v -1.646284 1.208336 1.354885
v -2.006628 0.000000 2.828267
v -1.646284 1.208336 2.348954
v -1.313733 2.407795 -0.798308
v -0.697936 2.579267 -1.354885
v -0.198281 5.338185 -0.159337
vt 0.593767 0.480301
vt 0.593767 0.307058
vt 0.482660 0.480301
vt 0.396716 0.063118
vt 0.593767 0.063118
vt 0.593767 0.063118
vt 0.396716 0.063118
vt 0.396716 0.063118
vt 0.336199 0.063118
vt 0.371776 0.063118
vt 0.593767 0.251287
vt 0.656111 0.251287
vt 0.642040 0.207888
vt 0.579695 0.249087
vt 0.593767 0.287562
vt 0.593767 0.251287
vt 0.656111 0.251287
vt 0.656111 0.251287
vt 0.454014 0.191378
vt 0.396716 0.166815
vt 0.396716 0.269751
vt 0.442898 0.284467
vt 0.396716 0.196741
vt 0.396716 0.239575
vt 0.593767 0.356328
vt 0.593767 0.480301
vt 0.530416 0.480301
vt 0.486362 0.512365
vt 0.428983 0.455171
vt 0.490422 0.437700
vt 0.396716 0.480301
vt 0.480371 0.521234
vt 0.469329 0.063118
vt 0.593767 0.063118
vt 0.396716 0.166815
vt 0.708732 0.063118
vt 0.660264 0.063118
vt 0.371776 0.112798
vt 0.371776 0.166815
vt 0.711619 0.063118
vt 0.656111 0.063118
vt 0.579695 0.063117
vt 0.455257 0.063118
vt 0.382644 0.063118
vt 0.382644 0.164615
vt 0.439942 0.189178
vt 0.344751 0.063118
vt 0.371776 0.166815
vt 0.396716 0.480301
vt 0.419515 0.480301
vn 0.5078 0.3727 -0.7767
vn 0.0000 -1.0000 0.0000
vn 0.2585 0.8953 -0.3628
vn 0.2644 0.9387 0.2211
vn -0.6540 -0.0894 -0.7512
vn -1.0000 0.0000 0.0000
vn 0.7861 0.4597 0.4133
vn 0.4696 0.8477 0.2469
vn -0.2263 0.6824 0.6951
vn -0.9248 0.1788 0.3357
vn -0.1512 0.1919 0.9697
vn -0.6117 0.7089 0.3510
vn -0.4654 0.1330 0.8751
vn 0.3485 0.2038 0.9149
vn 0.2403 0.9154 -0.3228
vn 1.0000 0.0000 0.0000
vn -0.1038 0.1467 0.9837
vn -0.0478 0.3527 0.9345
vn 0.9093 0.1979 -0.3662
vn 0.0000 0.0000 -1.0000
vn 0.2377 0.9686 -0.0729
vn -0.3484 0.8611 0.3702
vn -0.8193 0.5571 -0.1355
vn 0.9502 0.3115 -0.0074
vn 0.9257 0.1562 0.3446
vn 0.3320 0.1259 0.9348
vn -0.6538 -0.0911 -0.7512
vn -0.2109 0.1615 -0.9641
vn 0.2544 0.2379 -0.9374
vn -0.3149 0.9481 0.0441
vn -0.9726 0.0277 0.2308
vn -0.3503 0.9351 0.0529
vn -0.9577 0.2416 -0.1564
vn -0.9416 0.3339 0.0435
vn -0.1821 0.4510 0.8738
vn -0.4588 0.8752 0.1535
vn 0.1486 -0.1571 -0.9763
vn 0.0956 -0.1847 0.9781
vn -0.3900 0.9161 0.0933
vn -0.3932 0.9195 0.0000
vn 0.3034 0.9513 0.0549
vn -0.0751 0.9427 -0.3251
usemtl Material
s off
f 3/1/1 17/2/1 7/3/1
f 8/4/2 4/5/2 25/6/2 26/7/2
f 19/8/2 8/4/2 43/9/2 42/10/2
f 22/11/3 28/12/3 40/13/3 34/14/3
f 5/15/4 24/16/4 32/17/4 30/18/4
f 6/19/5 23/20/5 48/21/5 49/22/5
f 23/20/6 1/23/6 14/24/6 48/21/6
f 9/25/7 10/26/7 12/27/7
f 12/27/8 10/26/8 16/28/8
f 11/29/9 13/30/9 12/27/9
f 14/24/10 11/29/10 15/31/10
f 12/27/11 16/28/11 11/29/11
f 11/29/12 16/28/12 15/31/12
f 14/24/13 13/30/13 11/29/13
f 9/25/14 12/27/14 13/30/14
f 3/1/15 7/3/15 50/32/15 10/26/15
f 5/15/16 22/11/16 17/2/16 9/25/16
f 1/23/17 5/15/17 9/25/17 14/24/17
f 19/8/2 21/33/2 2/34/2 4/5/2
f 25/6/18 24/16/18 27/35/18 26/7/18
f 28/12/19 29/36/19 41/37/19 40/13/19
f 22/11/20 6/19/20 49/22/20 17/2/20
f 22/11/21 5/15/21 30/18/21 28/12/21
f 5/15/22 1/23/22 27/35/22 24/16/22
f 1/23/23 23/20/23 44/38/23 45/39/23
f 29/36/24 28/12/24 30/18/24 31/40/24
f 31/40/25 30/18/25 32/17/25 33/41/25
f 25/6/2 4/5/2 31/40/2 33/41/2
f 29/36/2 2/34/2 35/42/2 41/37/2
f 4/5/2 2/34/2 29/36/2 31/40/2
f 24/16/26 25/6/26 33/41/26 32/17/26
f 39/43/27 36/44/27 37/45/27 38/46/27
f 39/43/28 38/46/28 34/14/28 35/42/28
f 35/42/29 34/14/29 40/13/29 41/37/29
f 2/34/2 21/33/2 39/43/2 35/42/2
f 23/20/30 6/19/30 38/46/30 37/45/30
f 19/8/31 23/20/31 37/45/31 36/44/31
f 21/33/2 19/8/2 36/44/2 39/43/2
f 6/19/32 22/11/32 34/14/32 38/46/32
f 43/9/33 45/39/33 44/38/33 42/10/33
f 45/39/34 43/9/34 46/47/34 47/48/34
f 26/7/35 27/35/35 47/48/35 46/47/35
f 27/35/36 1/23/36 45/39/36 47/48/36
f 23/20/37 19/8/37 42/10/37 44/38/37
f 8/4/2 26/7/2 46/47/2 43/9/2
f 4/5/2 8/4/2 19/8/2
f 49/22/5 48/21/5 20/49/5 18/50/5
f 9/25/16 17/2/16 3/1/16 10/26/16
f 48/21/6 14/24/6 15/31/6 20/49/6
f 14/24/38 9/25/38 13/30/38
f 17/2/20 49/22/20 18/50/20 7/3/20
f 16/28/39 50/32/39 15/31/39
f 15/31/40 50/32/40 20/49/40
f 10/26/41 50/32/41 16/28/41
f 20/49/42 50/32/42 7/3/42 18/50/42
